1700 0 2 0           
18 Abaqus 2016 - 2402 14 ACIS 24.0.2 NT 24 Fri Sep 14 18:11:25 2018 
1 9.9999999999999995e-007 1e-010 
-0 body $2 -1 -1 $-1 $3 $-1 $4 T -30 -30 0 30 30 0 #
-1 body $5 -1 -1 $-1 $6 $-1 $-1 F #
-2 string_attrib-name_attrib-gen-attrib $-1 -1 $-1 $-1 $0 2 1 1 1 1 1 1 1 1 1 1 1 1 1 0 1 1 1 @18 HKS_ATTRIB_BODY_ID @1 1 #
-3 lump $-1 -1 -1 $-1 $-1 $7 $0 T -30 -30 0 30 30 0 #
-4 transform $-1 -1 1 0 0 0 1 0 0 0 1 0 0 0 1 no_rotate no_reflect no_shear #
-5 string_attrib-name_attrib-gen-attrib $-1 -1 $-1 $-1 $1 2 1 1 1 1 1 1 1 1 1 1 1 1 1 0 1 1 1 @18 HKS_ATTRIB_BODY_ID @1 1 #
-6 lump $-1 -1 -1 $-1 $-1 $8 $1 F #
-7 shell $-1 -1 -1 $-1 $-1 $-1 $9 $-1 $3 T -30 -30 0 30 30 0 #
-8 shell $-1 -1 -1 $-1 $-1 $-1 $10 $-1 $6 F #
-9 face $-1 -1 -1 $-1 $-1 $11 $7 $-1 $12 forward double out T -30 -30 0 30 30 0 F #
-10 face $-1 -1 -1 $-1 $13 $14 $8 $-1 $15 forward double out F F #
-11 loop $-1 -1 -1 $-1 $-1 $16 $9 T -30 -30 0 30 30 0 periphery $12 F #
-12 plane-surface $-1 -1 -1 $-1 0 0 0 0 0 1 1 0 0 forward_v I I I I #
-13 face $-1 -1 -1 $-1 $-1 $17 $8 $-1 $18 forward double out F F #
-14 loop $-1 -1 -1 $-1 $-1 $19 $10 F unknown #
-15 plane-surface $-1 -1 -1 $-1 6.6613381477509392e-016 2.0000000000000004 1 -0 -3.3306690738754696e-016 -1.0000000000000002 -3.3306690738754696e-016 -1.0000000000000002 -0 forward_v I I I I #
-16 coedge $-1 -1 -1 $-1 $16 $16 $-1 $20 forward $11 $-1 #
-17 loop $-1 -1 -1 $-1 $-1 $21 $13 F unknown #
-18 cone-surface $-1 -1 -1 $-1 0 1.3322676295501878e-015 5.0000000000000009 0 3.3306690738754696e-016 1.0000000000000002 1.3322676295501878e-015 4.0000000000000009 0 1 I I 0 1 4 forward I I I I #
-19 coedge $-1 -1 -1 $-1 $22 $23 $23 $24 forward $14 $-1 #
-20 edge $-1 -1 -1 $-1 $25 0 $25 6.2831853071795862 $16 $26 forward @7 unknown T -30 -30 0 30 30 0 #
-21 coedge $-1 -1 -1 $-1 $27 $28 $29 $30 forward $17 $-1 #
-22 coedge $-1 -1 -1 $-1 $23 $19 $28 $31 reversed $14 $-1 #
-23 coedge $-1 -1 -1 $-1 $19 $22 $19 $24 reversed $14 $-1 #
-24 edge $-1 -1 -1 $-1 $32 0 $33 4 $19 $34 forward @7 unknown F #
-25 vertex $-1 -1 -1 $-1 $20 $35 #
-26 ellipse-curve $-1 -1 -1 $-1 0 0 0 0 0 1 30 0 0 1 I I #
-27 coedge $-1 -1 -1 $-1 $29 $21 $-1 $36 reversed $17 $-1 #
-28 coedge $-1 -1 -1 $-1 $21 $29 $22 $31 forward $17 $-1 #
-29 coedge $-1 -1 -1 $-1 $28 $27 $21 $30 reversed $17 $-1 #
-30 edge $37 -1 -1 $-1 $33 0 $38 8 $21 $39 forward @7 unknown F #
-31 edge $-1 -1 -1 $-1 $33 0 $33 6.2831853071795862 $28 $40 forward @7 unknown F #
-32 vertex $-1 -1 -1 $-1 $24 $41 #
-33 vertex $-1 -1 -1 $-1 $24 $42 #
-34 straight-curve $-1 -1 -1 $-1 0 0 1 3.3306690738754706e-016 1.0000000000000004 0 I I #
-35 point $-1 -1 -1 $-1 30 0 0 #
-36 edge $-1 -1 -1 $-1 $38 0 $38 6.2831853071795862 $27 $43 forward @7 unknown F #
-37 integer_attrib-name_attrib-gen-attrib $-1 -1 $-1 $-1 $30 2 3 2 1 1 1 1 1 1 1 1 1 1 1 0 1 1 1 @12 make_tangent 1 #
-38 vertex $-1 -1 -1 $-1 $30 $44 #
-39 straight-curve $-1 -1 -1 $-1 1.3322676295501878e-015 4.0000000000000009 1 0 3.3306690738754706e-016 1.0000000000000004 I I #
-40 ellipse-curve $-1 -1 -1 $-1 0 0 1 0 3.3306690738754696e-016 1.0000000000000002 1.3322676295501878e-015 4.0000000000000009 0 1 I I #
-41 point $-1 -1 -1 $-1 0 0 1 #
-42 point $-1 -1 -1 $-1 1.3322676295501878e-015 4.0000000000000009 1 #
-43 ellipse-curve $-1 -1 -1 $-1 0 2.6645352591003757e-015 9.0000000000000018 0 3.3306690738754696e-016 1.0000000000000002 1.3322676295501878e-015 4.0000000000000009 0 1 I I #
-44 point $-1 -1 -1 $-1 1.3322676295501878e-015 4.0000000000000036 9.0000000000000018 #
End-of-ACIS-data 
